PathFileType	4	(X/Y/Z)	\\Move.snu.ac.kr\motion\Animal\091204_091205_Bird\091205_bird\Project 2\Capture day 2\Session 1\pigeon_029.trc
DataRate	CameraRate	NumFrames	NumMarkers	Units	OrigDataRate	OrigDataStartFrame	OrigNumFrames
240.0	240.0	7	14	mm	240.0	243	3339
Frame#	Time	14MarkersBird:Head			14MarkersBird:C_back			14MarkersBird:Spine			14MarkersBird:L-shoulder			14MarkersBird:L-elbow			14MarkersBird:L-wrist			14MarkersBird:L-hand			14MarkersBird:R-shoulder			14MarkersBird:R-elbow			14MarkersBird:R-Wrist			14MarkersBird:R-hand			14MarkersBird:C_Tail			14MarkersBird:L-Tale			14MarkersBird:R-Tale			
		X1	Y1	Z1	X2	Y2	Z2	X3	Y3	Z3	X4	Y4	Z4	X5	Y5	Z5	X6	Y6	Z6	X7	Y7	Z7	X8	Y8	Z8	X9	Y9	Z9	X10	Y10	Z10	X11	Y11	Z11	X12	Y12	Z12	X13	Y13	Z13	X14	Y14	Z14	

2678	11.154	-2002.47095	1361.08130	-1256.30286	-1942.82202	1370.68457	-1268.77136	-1889.72485	1369.03174	-1287.64221	-1962.17676	1360.33533	-1243.88745	-1926.09900	1368.04053	-1235.38037	-1960.73999	1368.55676	-1207.32800	-1959.28491	1342.09570	-1195.84302	-1976.18896	1364.40564	-1282.54028	-1953.29822	1383.97107	-1304.15845	-1995.41028	1384.61792	-1308.95349	-2003.99475	1346.51990	-1333.10144	-1795.81604	1296.23926	-1330.36401	-1819.44556	1313.14563	-1228.93835	-1875.52832	1345.46631	-1398.99182	
2679	11.158	-2017.59631	1354.52429	-1252.86292	-1958.36401	1364.05762	-1265.36755	-1904.92041	1362.88074	-1283.96301	-1977.45239	1353.27686	-1240.89929	-1941.20081	1365.48950	-1235.61743	-1972.92725	1368.64697	-1204.38879	-1963.72180	1345.10852	-1190.56799	-1990.57385	1358.18787	-1278.30957	-1965.56543	1380.88965	-1295.97900	-2007.14685	1385.54309	-1304.39001	-2010.52869	1353.61841	-1335.40710	-1810.46899	1290.63025	-1326.45227	-1834.32935	1310.15308	-1223.93420	-1889.05212	1344.62427	-1395.25171	
2680	11.163	-2032.62549	1347.88574	-1249.50208	-1973.90674	1357.45776	-1261.90784	-1919.97559	1356.42224	-1280.36609	-1992.78296	1346.07471	-1237.67200	-1956.92310	1362.23254	-1235.86731	-1985.66980	1367.68372	-1201.97949	-1968.61047	1348.99731	-1187.60852	-2004.97156	1351.85547	-1274.14087	-1978.45813	1376.63257	-1287.53613	-2019.00610	1385.14880	-1298.96936	-2016.59460	1362.26917	-1335.43237	-1824.44336	1285.44531	-1322.13635	-1849.51831	1307.84937	-1218.35547	-1902.80725	1344.64502	-1391.33655	
2681	11.167	-2047.54700	1341.18262	-1246.17285	-1989.43506	1350.78906	-1258.42737	-1934.90283	1349.64917	-1276.84277	-2008.00452	1338.86548	-1234.15308	-1973.13110	1358.18396	-1235.74292	-1998.81006	1365.62512	-1199.55078	-1975.28345	1353.37427	-1186.49023	-2019.47925	1345.33813	-1270.10498	-1992.05591	1371.20093	-1279.41956	-2031.32214	1383.44446	-1293.34485	-2022.43701	1371.17114	-1332.66504	-1837.69763	1280.80969	-1317.45239	-1864.97681	1305.65759	-1212.61035	-1916.97986	1344.41516	-1387.18616	
2682	11.171	-2062.38208	1334.42371	-1242.84009	-2004.83472	1344.01953	-1254.94446	-1949.73499	1342.58984	-1273.36548	-2023.06458	1331.67944	-1230.40625	-1989.67139	1353.37402	-1234.85681	-2012.06812	1362.50122	-1196.49609	-1984.46924	1357.79028	-1185.90613	-2034.16748	1338.57898	-1266.26624	-2006.41333	1364.88965	-1272.09924	-2044.29333	1380.68079	-1288.32202	-2030.04407	1379.88330	-1326.27112	-1850.30469	1276.80811	-1312.44348	-1880.65540	1302.97900	-1207.00732	-1931.57397	1343.10535	-1382.89551	
2683	11.175	-2077.16357	1327.61475	-1239.50012	-2019.97705	1337.15796	-1251.43909	-1964.49109	1335.27869	-1269.90234	-2037.94971	1324.52808	-1226.51685	-2006.35706	1347.90674	-1232.88281	-2025.09387	1358.37390	-1192.34961	-1996.16125	1361.67505	-1184.39966	-2049.04102	1331.51404	-1262.85657	-2021.56543	1358.18335	-1265.89758	-2057.94604	1377.14417	-1284.54785	-2039.70496	1387.40393	-1319.28870	-1862.44080	1273.43835	-1307.18958	-1896.53723	1299.37598	-1201.66284	-1946.47571	1340.26196	-1378.66650	
2684	11.179	-2091.90430	1320.76294	-1236.17029	-2034.81018	1330.19507	-1247.88855	-1979.18726	1327.73950	-1266.41882	-2052.64697	1317.42102	-1222.57190	-2022.91443	1341.88586	-1229.65173	-2037.58337	1353.20703	-1186.96387	-2009.85059	1364.07849	-1180.91260	-2064.03857	1324.14526	-1260.21094	-2037.46460	1351.52173	-1261.02893	-2072.16187	1372.90710	-1282.33398	-2052.15112	1392.69617	-1312.83313	-1874.35596	1270.58691	-1301.83093	-1912.64233	1294.64917	-1196.54700	-1961.57141	1335.72095	-1374.71802	
